<svg id="SvgjsSvg1001" width="288" height="288" xmlns="http://www.w3.org/2000/svg" version="1.1" xmlns:xlink="http://www.w3.org/1999/xlink" xmlns:svgjs="http://svgjs.com/svgjs"><defs id="SvgjsDefs1002"></defs><g id="SvgjsG1008"><svg xmlns="http://www.w3.org/2000/svg" fill-rule="evenodd" clip-rule="evenodd" image-rendering="optimizeQuality" shape-rendering="geometricPrecision" text-rendering="geometricPrecision" viewBox="0 0 10057 5000" width="288" height="288"><path fill="#ffffff" d="M5571 4966l-2278 -2665c-20,-23 -46,-35 -77,-34 -30,0 -56,13 -74,36l-1287 1604c-24,29 -28,69 -11,103 16,35 50,56 88,56l650 0c31,0 57,-13 76,-36l511 -630c18,-23 43,-35 72,-36 30,-1 55,9 75,30l493 518c34,36 37,89 7,128l-707 922c-20,25 -47,38 -78,38l-2933 0c-38,0 -71,-20 -87,-55 -18,-34 -14,-73 10,-103l3073 -3955c19,-24 45,-37 75,-38 31,0 58,12 77,35l2692 3148c19,22 45,34 74,34l1964 0c38,0 72,-21 88,-56 17,-36 12,-75 -13,-105l-2032 -2429c-19,-23 -46,-36 -76,-35 -31,0 -57,13 -76,37l-509 633c-19,23 -44,36 -73,37 -30,1 -56,-10 -76,-32l-511 -565c-33,-37 -34,-91 -3,-129l1153 -1387c19,-23 45,-35 75,-35 30,0 56,12 75,35l4036 4804c25,30 31,69 14,105 -17,35 -50,56 -89,56l-4314 0c-29,0 -55,-12 -74,-34z" class="svgShape colorff7d00-0 selectable"></path></svg></g></svg>